:SAMPLES-PER-SECOND 30
:FULLY-SPECIFIED
:DEGREES
551
root  -69.3986 33.9811 45.508 172.309 80.5827 171.06
RightUpLeg  7.14906 -6.03506 -9.79235
RightLeg  8.57877 -1.09937 -0.0926731
RightFoot  1.71786 0.00564917 0.026399
RightToes  -41.9519 -0.234261 -0.325881
Spine  3.27069 1.38074 -1.12098
Spine1  5.31058 3.02797 -2.31314
HEad  1.65632 14.4484 -0.981721
LeftShoulder1  0 -2.42657e-020 -4.95415e-022
LeftArm  -12.6547 -35.6241 -57.7921
LeftForeArm  120.662 -79.7532 -99.4654
LeftHand  -0.312195 -2.35979 14.7436
RightShoulder  0 2.42657e-020 1.07489e-018
RightArm  -4.29541 32.3563 69.796
RightForeArm  91.0772 73.8164 37.5401
RightHand  -6.89473 14.2947 -50.9696
LeftUpLeg  -4.85434 -8.49448 -7.17371
LeftLeg  15.7911 -6.58829 -1.41196
LeftFoot  -1.50767 0.00325647 0.247487
LeftToes  0.048939 8.72033e-007 1.17809e-007
552
root  -69.3569 33.99 45.8417 170.433 79.2722 169.268
RightUpLeg  7.83416 -8.05245 -10.0777
RightLeg  8.25961 -0.42743 -0.0327724
RightFoot  0.946581 0.00519049 0.0574897
RightToes  -41.2089 -0.228212 -0.321849
Spine  3.03169 1.4155 -1.36481
Spine1  4.9252 3.08818 -2.76146
HEad  3.1527 13.5412 -1.00584
LeftShoulder1  0 -2.42657e-020 -4.95415e-022
LeftArm  -19.8153 -36.4655 -59.4001
LeftForeArm  82.4148 -79.5727 -75.4517
LeftHand  0.0197371 0.249551 8.43992
RightShoulder  0 2.42657e-020 1.07489e-018
RightArm  -8.11999 36.6727 70.6321
RightForeArm  79.6238 70.0484 29.1375
RightHand  -5.73102 19.0711 -32.826
LeftUpLeg  -4.26033 -8.48151 -7.06202
LeftLeg  14.7422 -7.76683 -1.51493
LeftFoot  -0.854629 0.00139325 0.186799
LeftToes  -1.79793 8.72033e-007 1.17809e-007
553
root  -69.3559 33.987 46.1602 170.352 77.9009 169.208
RightUpLeg  8.47618 -8.74909 -9.54958
RightLeg  7.63181 -1.87487 -0.127846
RightFoot  0.221488 0.00676598 0.0547249
RightToes  -39.1013 -0.211344 -0.30999
Spine  2.92508 1.35018 -1.48575
Spine1  4.80961 2.92384 -2.95061
HEad  3.72594 12.7361 -1.3505
LeftShoulder1  0 -2.42657e-020 -4.95415e-022
LeftArm  -23.0217 -35.4263 -59.8952
LeftForeArm  67.7113 -77.9341 -56.3428
LeftHand  0.030559 0.320529 10.2998
RightShoulder  0 2.42657e-020 1.07489e-018
RightArm  -10.3869 39.9607 70.9562
RightForeArm  75.6051 67.5949 25.3702
RightHand  -2.03258 17.6087 -12.7021
LeftUpLeg  -4.39488 -9.49476 -6.80999
LeftLeg  14.7968 -8.08535 -1.58452
LeftFoot  -0.538555 0.00068245 0.145198
LeftToes  -3.48353 8.72033e-007 1.17809e-007
554
root  -69.337 33.9741 46.4955 170.309 76.6701 169.194
RightUpLeg  8.98198 -9.25238 -8.95861
RightLeg  7.19059 -3.37731 -0.205146
RightFoot  -0.658105 0.00515953 0.100275
RightToes  -36.6842 -0.192552 -0.295636
Spine  3.03519 1.24948 -1.60915
Spine1  5.09119 2.71085 -3.16811
HEad  3.58495 12.8527 -1.52414
LeftShoulder1  0 -2.42657e-020 -4.95415e-022
LeftArm  -24.5977 -32.3014 -59.8173
LeftForeArm  70.0961 -77.4169 -52.8266
LeftHand  -0.164808 -1.39012 13.2174
RightShoulder  0 2.42657e-020 1.07489e-018
RightArm  -11.3347 41.0805 70.8862
RightForeArm  65.101 65.1133 22.4035
RightHand  -0.364164 15.906 -2.23713
LeftUpLeg  -4.73736 -10.4619 -6.50636
LeftLeg  15.2916 -8.30454 -1.70147
LeftFoot  -0.443818 -0.000249683 0.133149
LeftToes  -4.87048 8.72033e-007 1.17809e-007
555
root  -69.3164 33.9573 46.826 170.097 75.7549 168.998
RightUpLeg  9.36272 -8.88767 -8.26409
RightLeg  6.84941 -4.96595 -0.27232
RightFoot  -1.42648 0.00112059 0.183688
RightToes  -34.4687 -0.175872 -0.281794
Spine  3.23127 1.24311 -1.68556
Spine1  5.52131 2.75644 -3.39751
HEad  2.90056 12.501 -1.09177
LeftShoulder1  0 -2.42657e-020 -4.95415e-022
LeftArm  -24.7577 -28.0904 -60.1913
LeftForeArm  71.6059 -77.7401 -54.9492
LeftHand  -0.0594863 -0.518408 12.8934
RightShoulder  0 2.42657e-020 1.07489e-018
RightArm  -11.821 39.02 69.7148
RightForeArm  61.6391 64.0792 21.3365
RightHand  -0.00505816 17.1754 0.336641
LeftUpLeg  -4.85904 -11.6186 -6.23123
LeftLeg  15.3639 -8.08004 -1.66645
LeftFoot  -0.260177 0.000242758 0.106908
LeftToes  -6.66441 8.72033e-007 1.17809e-007
556
root  -69.2942 33.9398 47.1465 169.259 75.1281 168.383
RightUpLeg  9.7076 -8.79344 -7.93579
RightLeg  6.88809 -5.54731 -0.30795
RightFoot  -1.99919 -0.00212205 0.256017
RightToes  -33.872 -0.171473 -0.277957
Spine  3.48977 1.39661 -1.69841
Spine1  6.01505 3.16722 -3.58207
HEad  3.15297 12.5638 -0.560536
LeftShoulder1  0 -2.42657e-020 -4.95415e-022
LeftArm  -23.8204 -23.6804 -61.1465
LeftForeArm  65.7229 -77.2721 -51.9495
LeftHand  0.00122499 0.00591875 10.6974
RightShoulder  0 2.42657e-020 1.07489e-018
RightArm  -11.6058 34.5297 68.2346
RightForeArm  56.98 63.7761 21.0529
RightHand  -0.385781 18.1671 -2.04331
LeftUpLeg  -4.90381 -11.6184 -5.94862
LeftLeg  15.6652 -8.69847 -1.84038
LeftFoot  -0.0979173 7.57538e-005 0.0886415
LeftToes  -8.07698 8.72033e-007 1.17809e-007
557
root  -69.2923 33.927 47.4806 169.775 74.5608 169.103
RightUpLeg  9.83419 -9.71764 -7.53576
RightLeg  7.10332 -5.07365 -0.300743
RightFoot  -2.30807 -0.0020657 0.271571
RightToes  -33.7181 -0.170344 -0.276959
Spine  3.74776 1.55381 -1.5331
Spine1  6.49252 3.55582 -3.38092
HEad  3.98264 12.7805 -0.77041
LeftShoulder1  0 -2.42657e-020 -4.95415e-022
LeftArm  -21.7001 -19.0623 -62.4853
LeftForeArm  58.2315 -75.7578 -44.4524
LeftHand  0.0147425 0.170279 9.15399
RightShoulder  0 2.42657e-020 1.07489e-018
RightArm  -10.584 28.6436 67.2233
RightForeArm  54.2291 62.6042 19.9633
RightHand  -1.33199 18.4403 -7.8247
LeftUpLeg  -5.28985 -11.7793 -5.31169
LeftLeg  16.4106 -9.16057 -2.06148
LeftFoot  -0.0554274 -0.00170576 0.0855635
LeftToes  -9.63242 8.72033e-007 1.17809e-007
558
root  -69.3162 33.9197 47.825 170.795 73.9089 170.102
RightUpLeg  9.67435 -10.3924 -6.85816
RightLeg  7.30995 -5.09959 -0.320706
RightFoot  -2.59085 -0.00185087 0.29578
RightToes  -32.9982 -0.165102 -0.272254
Spine  3.93252 1.55266 -1.25125
Spine1  6.90714 3.59984 -2.94876
HEad  4.39118 13.0487 -1.75205
LeftShoulder1  0 -2.42657e-020 -4.95415e-022
LeftArm  -19.6646 -14.4108 -64.0995
LeftForeArm  51.9085 -72.7532 -34.8871
LeftHand  -0.0337797 -0.492775 7.57979
RightShoulder  0 2.42657e-020 1.07489e-018
RightArm  -9.68381 22.8266 67.2078
RightForeArm  52.9801 60.1034 17.9115
RightHand  -2.10046 19.0976 -12.0728
LeftUpLeg  -6.01834 -12.0667 -4.54082
LeftLeg  17.2411 -9.59347 -2.30366
LeftFoot  -0.0212564 -0.003366 0.0766347
LeftToes  -10.9746 8.72033e-007 1.17809e-007
559
root  -69.3622 33.9075 48.1573 171.272 73.3111 170.405
RightUpLeg  9.19714 -10.5611 -6.25236
RightLeg  7.70996 -5.39229 -0.37685
RightFoot  -3.07283 -0.000796499 0.347932
RightToes  -32.0931 -0.158597 -0.266247
Spine  4.0634 1.40769 -1.05446
Spine1  7.23836 3.34072 -2.67336
HEad  4.3004 13.6637 -2.37374
LeftShoulder1  0 -2.42657e-020 -4.95415e-022
LeftArm  -17.8858 -9.68382 -65.5691
LeftForeArm  45.5651 -68.5377 -26.8132
LeftHand  -0.0527639 -0.91883 6.25033
RightShoulder  0 2.42657e-020 1.07489e-018
RightArm  -8.74831 17.4366 67.9354
RightForeArm  52.8553 55.2671 14.754
RightHand  -2.54858 19.7546 -14.1949
LeftUpLeg  -6.7465 -12.3747 -3.93405
LeftLeg  17.7355 -9.95951 -2.48108
LeftFoot  0.168376 -0.00311655 0.0355594
LeftToes  -12.3718 8.72033e-007 1.17809e-007
560
root  -69.4248 33.8954 48.4712 171.336 72.8099 170.24
RightUpLeg  8.54094 -10.4584 -5.69257
RightLeg  8.30591 -5.98418 -0.480623
RightFoot  -3.58309 0.00150117 0.425625
RightToes  -31.3226 -0.153134 -0.261052
Spine  4.2693 1.1274 -0.880675
Spine1  7.70987 2.78323 -2.40584
HEad  3.77266 14.027 -2.99558
LeftShoulder1  0 -2.42657e-020 -4.95415e-022
LeftArm  -15.8877 -4.98744 -66.8953
LeftForeArm  41.0709 -63.4979 -20.8061
LeftHand  -0.0222365 -0.438277 5.52651
RightShoulder  0 2.42657e-020 1.07489e-018
RightArm  -8.40283 12.618 69.0144
RightForeArm  52.1532 48.8579 11.6387
RightHand  -2.30333 19.7445 -12.8127
LeftUpLeg  -7.36801 -12.8653 -3.50132
LeftLeg  17.9221 -10.0099 -2.52794
LeftFoot  0.467371 -0.00151938 -0.0274323
LeftToes  -13.4693 8.72033e-007 1.17809e-007
561
root  -69.4725 33.8847 48.7972 171.535 72.327 170.165
RightUpLeg  7.94838 -10.3338 -5.04607
RightLeg  8.70508 -6.69264 -0.584193
RightFoot  -4.06365 0.00491246 0.516106
RightToes  -30.2875 -0.145906 -0.253959
Spine  4.41383 0.833574 -0.741765
Spine1  8.09655 2.19968 -2.17739
HEad  2.99846 14.3307 -3.22004
LeftShoulder1  0 -2.42657e-020 -4.95415e-022
LeftArm  -13.9847 -0.888959 -68.2794
LeftForeArm  38.2995 -57.2961 -15.9887
LeftHand  -0.0127011 -0.3363 4.03926
RightShoulder  0 2.42657e-020 1.07489e-018
RightArm  -9.49915 7.64412 70.5284
RightForeArm  49.83 41.2389 8.87416
RightHand  -1.91315 20.4414 -10.2148
LeftUpLeg  -7.90129 -13.3051 -2.99411
LeftLeg  17.8617 -10.1245 -2.54522
LeftFoot  0.790811 0.00068553 -0.0993438
LeftToes  -14.4707 8.72033e-007 1.17809e-007
562
root  -69.5498 33.8426 49.1326 171.348 72.3568 169.599
RightUpLeg  6.68484 -9.86877 -4.47624
RightLeg  9.91876 -7.07677 -0.768573
RightFoot  -4.97918 0.0117394 0.647641
RightToes  -29.2632 -0.13888 -0.246812
Spine  4.62916 0.826356 -0.600195
Spine1  8.56432 2.33862 -2.10961
HEad  2.22874 14.5611 -3.32237
LeftShoulder1  0 -2.42657e-020 -4.95415e-022
LeftArm  -12.6718 2.5403 -70.0178
LeftForeArm  39.2556 -50.3966 -12.3219
LeftHand  -0.0240637 -1.17437 1.98952
RightShoulder  0 2.42657e-020 1.07489e-018
RightArm  -11.8217 2.78134 71.9111
RightForeArm  48.2219 32.7494 6.48751
RightHand  -1.44724 20.5845 -7.58969
LeftUpLeg  -8.71724 -12.8524 -2.46908
LeftLeg  18.1571 -10.6117 -2.72391
LeftFoot  0.958794 0.00121905 -0.145702
LeftToes  -15.6851 8.72033e-007 1.17809e-007
